<svg id="visual" viewBox="0 0 1920 1080" width="1920" height="1080" xmlns="http://www.w3.org/2000/svg" xmlns:xlink="http://www.w3.org/1999/xlink" version="1.1"><g stroke-width="1" stroke-linejoin="bevel"><path d="M927 533L904 369L731 545Z" fill="#efefef" stroke="#efefef"></path><path d="M904 369L716 387L731 545Z" fill="#e5e5e5" stroke="#e5e5e5"></path><path d="M716 387L557 502L731 545Z" fill="#cccccc" stroke="#cccccc"></path><path d="M521 684L724 718L731 545Z" fill="#eaeaea" stroke="#eaeaea"></path><path d="M731 545L724 718L927 533Z" fill="#ffffff" stroke="#ffffff"></path><path d="M724 718L1009 732L927 533Z" fill="#cccccc" stroke="#cccccc"></path><path d="M927 533L1188 498L904 369Z" fill="#dbdbdb" stroke="#dbdbdb"></path><path d="M593 219L530 316L716 387Z" fill="#efefef" stroke="#efefef"></path><path d="M716 387L530 316L557 502Z" fill="#e0e0e0" stroke="#e0e0e0"></path><path d="M777 129L593 219L716 387Z" fill="#e0e0e0" stroke="#e0e0e0"></path><path d="M904 369L777 129L716 387Z" fill="#ffffff" stroke="#ffffff"></path><path d="M1113 722L1188 498L927 533Z" fill="#e0e0e0" stroke="#e0e0e0"></path><path d="M904 369L994 136L777 129Z" fill="#fafafa" stroke="#fafafa"></path><path d="M1171 234L994 136L904 369Z" fill="#f5f5f5" stroke="#f5f5f5"></path><path d="M435 556L521 684L557 502Z" fill="#e0e0e0" stroke="#e0e0e0"></path><path d="M557 502L521 684L731 545Z" fill="#d1d1d1" stroke="#d1d1d1"></path><path d="M1009 732L1113 722L927 533Z" fill="#e0e0e0" stroke="#e0e0e0"></path><path d="M434 371L435 556L557 502Z" fill="#d6d6d6" stroke="#d6d6d6"></path><path d="M430 225L434 371L530 316Z" fill="#eaeaea" stroke="#eaeaea"></path><path d="M530 316L434 371L557 502Z" fill="#e0e0e0" stroke="#e0e0e0"></path><path d="M1188 498L1198 313L904 369Z" fill="#d6d6d6" stroke="#d6d6d6"></path><path d="M807 886L927 857L724 718Z" fill="#e5e5e5" stroke="#e5e5e5"></path><path d="M724 718L927 857L1009 732Z" fill="#e5e5e5" stroke="#e5e5e5"></path><path d="M1009 732L1144 882L1113 722Z" fill="#eaeaea" stroke="#eaeaea"></path><path d="M1198 313L1171 234L904 369Z" fill="#e5e5e5" stroke="#e5e5e5"></path><path d="M552 926L807 886L724 718Z" fill="#f5f5f5" stroke="#f5f5f5"></path><path d="M593 219L430 225L530 316Z" fill="#fafafa" stroke="#fafafa"></path><path d="M197 596L423 729L435 556Z" fill="#d6d6d6" stroke="#d6d6d6"></path><path d="M599 0L430 225L593 219Z" fill="#fafafa" stroke="#fafafa"></path><path d="M1002 0L816 0L994 136Z" fill="#dbdbdb" stroke="#dbdbdb"></path><path d="M994 136L816 0L777 129Z" fill="#e5e5e5" stroke="#e5e5e5"></path><path d="M777 129L599 0L593 219Z" fill="#dbdbdb" stroke="#dbdbdb"></path><path d="M435 556L423 729L521 684Z" fill="#f5f5f5" stroke="#f5f5f5"></path><path d="M521 684L552 926L724 718Z" fill="#d1d1d1" stroke="#d1d1d1"></path><path d="M197 596L435 556L434 371Z" fill="#ffffff" stroke="#ffffff"></path><path d="M1121 0L1002 0L994 136Z" fill="#cccccc" stroke="#cccccc"></path><path d="M816 0L599 0L777 129Z" fill="#efefef" stroke="#efefef"></path><path d="M998 1080L1144 882L927 857Z" fill="#d1d1d1" stroke="#d1d1d1"></path><path d="M927 857L1144 882L1009 732Z" fill="#dbdbdb" stroke="#dbdbdb"></path><path d="M1375 586L1380 416L1188 498Z" fill="#eaeaea" stroke="#eaeaea"></path><path d="M423 729L552 926L521 684Z" fill="#eaeaea" stroke="#eaeaea"></path><path d="M807 886L800 1080L927 857Z" fill="#ffffff" stroke="#ffffff"></path><path d="M1309 170L1121 0L1171 234Z" fill="#dbdbdb" stroke="#dbdbdb"></path><path d="M1171 234L1121 0L994 136Z" fill="#e0e0e0" stroke="#e0e0e0"></path><path d="M1375 586L1188 498L1113 722Z" fill="#cccccc" stroke="#cccccc"></path><path d="M1188 498L1380 416L1198 313Z" fill="#e5e5e5" stroke="#e5e5e5"></path><path d="M1198 313L1309 170L1171 234Z" fill="#dbdbdb" stroke="#dbdbdb"></path><path d="M1398 772L1375 586L1113 722Z" fill="#d1d1d1" stroke="#d1d1d1"></path><path d="M1380 416L1309 170L1198 313Z" fill="#ffffff" stroke="#ffffff"></path><path d="M423 729L422 895L552 926Z" fill="#dbdbdb" stroke="#dbdbdb"></path><path d="M613 1080L807 886L552 926Z" fill="#efefef" stroke="#efefef"></path><path d="M613 1080L800 1080L807 886Z" fill="#e0e0e0" stroke="#e0e0e0"></path><path d="M800 1080L998 1080L927 857Z" fill="#e0e0e0" stroke="#e0e0e0"></path><path d="M1144 882L1398 772L1113 722Z" fill="#d6d6d6" stroke="#d6d6d6"></path><path d="M168 340L197 596L434 371Z" fill="#d6d6d6" stroke="#d6d6d6"></path><path d="M423 729L210 733L422 895Z" fill="#d6d6d6" stroke="#d6d6d6"></path><path d="M599 0L379 0L430 225Z" fill="#f5f5f5" stroke="#f5f5f5"></path><path d="M430 225L168 340L434 371Z" fill="#cccccc" stroke="#cccccc"></path><path d="M1286 955L1398 772L1144 882Z" fill="#cccccc" stroke="#cccccc"></path><path d="M1588 339L1481 229L1380 416Z" fill="#ffffff" stroke="#ffffff"></path><path d="M326 1080L613 1080L552 926Z" fill="#eaeaea" stroke="#eaeaea"></path><path d="M1575 0L1297 0L1309 170Z" fill="#dbdbdb" stroke="#dbdbdb"></path><path d="M1309 170L1297 0L1121 0Z" fill="#efefef" stroke="#efefef"></path><path d="M165 199L168 340L430 225Z" fill="#efefef" stroke="#efefef"></path><path d="M164 954L210 733L0 950Z" fill="#cccccc" stroke="#cccccc"></path><path d="M197 596L210 733L423 729Z" fill="#d1d1d1" stroke="#d1d1d1"></path><path d="M422 895L326 1080L552 926Z" fill="#f5f5f5" stroke="#f5f5f5"></path><path d="M1106 1080L1286 955L1144 882Z" fill="#f5f5f5" stroke="#f5f5f5"></path><path d="M998 1080L1106 1080L1144 882Z" fill="#e5e5e5" stroke="#e5e5e5"></path><path d="M1380 416L1481 229L1309 170Z" fill="#d1d1d1" stroke="#d1d1d1"></path><path d="M1536 595L1380 416L1375 586Z" fill="#ffffff" stroke="#ffffff"></path><path d="M379 0L165 199L430 225Z" fill="#fafafa" stroke="#fafafa"></path><path d="M1580 747L1536 595L1398 772Z" fill="#e5e5e5" stroke="#e5e5e5"></path><path d="M1398 772L1536 595L1375 586Z" fill="#d6d6d6" stroke="#d6d6d6"></path><path d="M1536 595L1588 339L1380 416Z" fill="#f5f5f5" stroke="#f5f5f5"></path><path d="M1481 229L1575 0L1309 170Z" fill="#f5f5f5" stroke="#f5f5f5"></path><path d="M164 954L326 1080L422 895Z" fill="#eaeaea" stroke="#eaeaea"></path><path d="M379 0L168 0L165 199Z" fill="#eaeaea" stroke="#eaeaea"></path><path d="M1593 919L1580 747L1398 772Z" fill="#cccccc" stroke="#cccccc"></path><path d="M1536 595L1671 376L1588 339Z" fill="#d1d1d1" stroke="#d1d1d1"></path><path d="M0 674L210 733L197 596Z" fill="#e5e5e5" stroke="#e5e5e5"></path><path d="M210 733L164 954L422 895Z" fill="#ffffff" stroke="#ffffff"></path><path d="M0 523L197 596L168 340Z" fill="#d1d1d1" stroke="#d1d1d1"></path><path d="M0 315L0 523L168 340Z" fill="#dbdbdb" stroke="#dbdbdb"></path><path d="M0 315L168 340L165 199Z" fill="#dbdbdb" stroke="#dbdbdb"></path><path d="M1106 1080L1387 1080L1286 955Z" fill="#d1d1d1" stroke="#d1d1d1"></path><path d="M1286 955L1593 919L1398 772Z" fill="#dbdbdb" stroke="#dbdbdb"></path><path d="M0 190L0 315L165 199Z" fill="#d1d1d1" stroke="#d1d1d1"></path><path d="M0 523L0 674L197 596Z" fill="#fafafa" stroke="#fafafa"></path><path d="M1726 577L1671 376L1536 595Z" fill="#d6d6d6" stroke="#d6d6d6"></path><path d="M1681 129L1575 0L1481 229Z" fill="#d1d1d1" stroke="#d1d1d1"></path><path d="M164 954L234 1080L326 1080Z" fill="#efefef" stroke="#efefef"></path><path d="M0 1080L234 1080L164 954Z" fill="#e0e0e0" stroke="#e0e0e0"></path><path d="M168 0L0 190L165 199Z" fill="#fafafa" stroke="#fafafa"></path><path d="M1681 129L1481 229L1588 339Z" fill="#eaeaea" stroke="#eaeaea"></path><path d="M1387 1080L1593 919L1286 955Z" fill="#cccccc" stroke="#cccccc"></path><path d="M1580 747L1726 577L1536 595Z" fill="#e0e0e0" stroke="#e0e0e0"></path><path d="M1719 729L1726 577L1580 747Z" fill="#efefef" stroke="#efefef"></path><path d="M1671 376L1681 129L1588 339Z" fill="#cccccc" stroke="#cccccc"></path><path d="M1920 228L1681 129L1671 376Z" fill="#d6d6d6" stroke="#d6d6d6"></path><path d="M1686 883L1719 729L1580 747Z" fill="#efefef" stroke="#efefef"></path><path d="M168 0L0 0L0 190Z" fill="#e5e5e5" stroke="#e5e5e5"></path><path d="M0 674L0 950L210 733Z" fill="#fafafa" stroke="#fafafa"></path><path d="M1715 1080L1686 883L1593 919Z" fill="#f5f5f5" stroke="#f5f5f5"></path><path d="M1593 919L1686 883L1580 747Z" fill="#d1d1d1" stroke="#d1d1d1"></path><path d="M1387 1080L1576 1080L1593 919Z" fill="#efefef" stroke="#efefef"></path><path d="M1920 0L1716 0L1681 129Z" fill="#e0e0e0" stroke="#e0e0e0"></path><path d="M1681 129L1716 0L1575 0Z" fill="#fafafa" stroke="#fafafa"></path><path d="M0 950L0 1080L164 954Z" fill="#ffffff" stroke="#ffffff"></path><path d="M1576 1080L1715 1080L1593 919Z" fill="#d6d6d6" stroke="#d6d6d6"></path><path d="M1920 679L1726 577L1719 729Z" fill="#e0e0e0" stroke="#e0e0e0"></path><path d="M1920 679L1920 512L1726 577Z" fill="#dbdbdb" stroke="#dbdbdb"></path><path d="M1920 679L1719 729L1920 843Z" fill="#ffffff" stroke="#ffffff"></path><path d="M1726 577L1920 512L1671 376Z" fill="#d6d6d6" stroke="#d6d6d6"></path><path d="M1920 512L1920 364L1671 376Z" fill="#d1d1d1" stroke="#d1d1d1"></path><path d="M1920 843L1719 729L1686 883Z" fill="#efefef" stroke="#efefef"></path><path d="M1920 364L1920 228L1671 376Z" fill="#d1d1d1" stroke="#d1d1d1"></path><path d="M1920 1080L1920 843L1686 883Z" fill="#e5e5e5" stroke="#e5e5e5"></path><path d="M1920 228L1920 0L1681 129Z" fill="#dbdbdb" stroke="#dbdbdb"></path><path d="M1715 1080L1920 1080L1686 883Z" fill="#ffffff" stroke="#ffffff"></path></g></svg>